---BACKBONE CONFIGS---
==========================================
backbone_net:resnet
depth:50
dropout:0.5
groups:1
frames_per_group:1
without_t_stride:True
pooling_method:max
dw_t_conv:False
temporal_module_name:TAM
blending_frames:3
blending_method:sum
dw_conv:True
gpu:None
cudnn_benchmark:True
batch_size:32
lr:0.01
lr_scheduler:cosine
lr_steps:[15, 30, 45]
momentum:0.9
nesterov:False
weight_decay:0.0005
epochs:50
resume:
pretrained:./state_dicts/K400-TAM-ResNet-50-f32.pth.tar
start_epoch:0
clip_gradient:None
imagenet_pretrained:True
workers:0
datadir:/home/SarosijBose/HAR/KDHAR/kinetics400/k400
dataset:kinetics400
threed_data:False
input_size:224
disable_scaleup:False
random_sampling:False
dense_sampling:False
augmentor_ver:v1
scale_range:[256, 320]
modality:rgb
mean:None
std:None
logdir:snapshots/
print_freq:100
show_model:False
evaluate:False
num_crops:1
num_clips:1
sync_bn:False
world_size:1
rank:0
dist_url:tcp://127.0.0.1:23456
dist_backend:nccl
multiprocessing_distributed:False
num_classes:400

---FINE TUNE CONFIGS---
==========================================
base_path:/home/SarosijBose/HAR/KDHAR/soccer/images
stand_alone:False
epochs:100
runs:5
bs:32
loss:CrossEntropy
optim:Adam
lr:0.0001
workers:4
input_size:224
gpu:0
save_ckpt:True
eval_only:False
eval_ckpt:None
log_file:train_n_val3
device:cuda:0
log_dir:./log/train_n_val3/train_n_val3.log

Epoch:1 || loss------> 1.293
Epoch:1 || loss------> 1.174
Epoch:2 || loss------> 2.032
Epoch:2 || loss------> 1.143
Epoch:3 || loss------> 2.001
Epoch:3 || loss------> 1.104
Epoch:4 || loss------> 2.037
Epoch:4 || loss------> 1.115
Epoch:5 || loss------> 1.947
Epoch:5 || loss------> 1.092
Epoch:6 || loss------> 1.856
Epoch:6 || loss------> 1.031
Epoch:7 || loss------> 1.714
Epoch:7 || loss------> 0.997
Epoch:8 || loss------> 1.674
Epoch:8 || loss------> 0.930
Epoch:9 || loss------> 1.636
Epoch:9 || loss------> 0.931
Epoch:10 || loss------> 1.557
Epoch:10 || loss------> 0.910
Epoch:11 || loss------> 1.613
Epoch:11 || loss------> 0.871
Epoch:12 || loss------> 1.572
Epoch:12 || loss------> 0.874
Epoch:13 || loss------> 1.564
Epoch:13 || loss------> 0.887
Epoch:14 || loss------> 1.505
Epoch:14 || loss------> 0.883
Epoch:15 || loss------> 1.594
Epoch:15 || loss------> 0.829
Epoch:16 || loss------> 1.550
Epoch:16 || loss------> 0.871
Epoch:17 || loss------> 1.491
Epoch:17 || loss------> 0.849
Epoch:18 || loss------> 1.478
Epoch:18 || loss------> 0.855
Epoch:19 || loss------> 1.523
Epoch:19 || loss------> 0.850
Epoch:20 || loss------> 1.490
Epoch:20 || loss------> 0.830
Epoch:21 || loss------> 1.486
Epoch:21 || loss------> 0.835
Epoch:22 || loss------> 1.453
Epoch:22 || loss------> 0.842
Epoch:23 || loss------> 1.467
Epoch:23 || loss------> 0.820
Epoch:24 || loss------> 1.455
Epoch:24 || loss------> 0.838
Epoch:25 || loss------> 1.454
Epoch:25 || loss------> 0.865
Epoch:26 || loss------> 1.439
Epoch:26 || loss------> 0.815
Epoch:27 || loss------> 1.457
Epoch:27 || loss------> 0.815
Epoch:28 || loss------> 1.412
Epoch:28 || loss------> 0.820
Epoch:29 || loss------> 1.463
Epoch:29 || loss------> 0.806
Epoch:30 || loss------> 1.425
Epoch:30 || loss------> 0.806
Epoch:31 || loss------> 1.415
Epoch:31 || loss------> 0.786
Epoch:32 || loss------> 1.380
Epoch:32 || loss------> 0.783
Epoch:33 || loss------> 1.414
Epoch:33 || loss------> 0.781
Epoch:34 || loss------> 1.383
Epoch:34 || loss------> 0.799
Epoch:35 || loss------> 1.369
Epoch:35 || loss------> 0.763
Epoch:36 || loss------> 1.368
Epoch:36 || loss------> 0.787
Epoch:37 || loss------> 1.366
Epoch:37 || loss------> 0.752
Epoch:38 || loss------> 1.341
Epoch:38 || loss------> 0.771
Epoch:39 || loss------> 1.342
Epoch:39 || loss------> 0.763
Epoch:40 || loss------> 1.305
Epoch:40 || loss------> 0.770
Epoch:41 || loss------> 1.311
Epoch:41 || loss------> 0.736
Epoch:42 || loss------> 1.298
Epoch:42 || loss------> 0.725
Epoch:43 || loss------> 1.321
Epoch:43 || loss------> 0.719
Epoch:44 || loss------> 1.268
Epoch:44 || loss------> 0.747
Epoch:45 || loss------> 1.333
Epoch:45 || loss------> 0.733
Epoch:46 || loss------> 1.250
Epoch:46 || loss------> 0.727
Epoch:47 || loss------> 1.270
Epoch:47 || loss------> 0.722
Epoch:48 || loss------> 1.275
Epoch:48 || loss------> 0.726
Epoch:49 || loss------> 1.282
Epoch:49 || loss------> 0.739
Epoch:50 || loss------> 1.253
Epoch:50 || loss------> 0.710
Epoch:51 || loss------> 1.229
Epoch:51 || loss------> 0.729
Epoch:52 || loss------> 1.272
Epoch:52 || loss------> 0.715
Epoch:53 || loss------> 1.259
Epoch:53 || loss------> 0.720
Epoch:54 || loss------> 1.234
Epoch:54 || loss------> 0.694
Epoch:55 || loss------> 1.229
Epoch:55 || loss------> 0.738
Epoch:56 || loss------> 1.219
Epoch:56 || loss------> 0.694
Epoch:57 || loss------> 1.222
Epoch:57 || loss------> 0.692
Epoch:58 || loss------> 1.235
Epoch:58 || loss------> 0.701
Epoch:59 || loss------> 1.243
Epoch:59 || loss------> 0.716
Epoch:60 || loss------> 1.210
Epoch:60 || loss------> 0.695
Epoch:61 || loss------> 1.223
Epoch:61 || loss------> 0.708
Epoch:62 || loss------> 1.238
Epoch:62 || loss------> 0.696
Epoch:63 || loss------> 1.241
Epoch:63 || loss------> 0.697
Epoch:64 || loss------> 1.206
Epoch:64 || loss------> 0.685
Epoch:65 || loss------> 1.226
Epoch:65 || loss------> 0.673
Epoch:66 || loss------> 1.234
Epoch:66 || loss------> 0.690
Epoch:67 || loss------> 1.202
Epoch:67 || loss------> 0.669
Epoch:68 || loss------> 1.226
Epoch:68 || loss------> 0.685
Epoch:69 || loss------> 1.207
Epoch:69 || loss------> 0.686
Epoch:70 || loss------> 1.209
Epoch:70 || loss------> 0.692
Epoch:71 || loss------> 1.185
Epoch:71 || loss------> 0.684
Epoch:72 || loss------> 1.195
Epoch:72 || loss------> 0.692
Epoch:73 || loss------> 1.192
Epoch:73 || loss------> 0.689
Epoch:74 || loss------> 1.229
Epoch:74 || loss------> 0.653
Epoch:75 || loss------> 1.191
Epoch:75 || loss------> 0.671
Epoch:76 || loss------> 1.190
Epoch:76 || loss------> 0.681
Epoch:77 || loss------> 1.197
Epoch:77 || loss------> 0.689
Epoch:78 || loss------> 1.169
Epoch:78 || loss------> 0.678
Epoch:79 || loss------> 1.186
Epoch:79 || loss------> 0.654
Epoch:80 || loss------> 1.196
Epoch:80 || loss------> 0.647
Epoch:81 || loss------> 1.213
Epoch:81 || loss------> 0.664
Epoch:82 || loss------> 1.168
Epoch:82 || loss------> 0.672
Epoch:83 || loss------> 1.158
Epoch:83 || loss------> 0.680
Epoch:84 || loss------> 1.156
Epoch:84 || loss------> 0.664
Epoch:85 || loss------> 1.197
Epoch:85 || loss------> 0.659
Epoch:86 || loss------> 1.166
Epoch:86 || loss------> 0.656
Epoch:87 || loss------> 1.176
Epoch:87 || loss------> 0.669
Epoch:88 || loss------> 1.147
Epoch:88 || loss------> 0.664
Epoch:89 || loss------> 1.177
Epoch:89 || loss------> 0.674
Epoch:90 || loss------> 1.163
Epoch:90 || loss------> 0.653
Epoch:91 || loss------> 1.162
Epoch:91 || loss------> 0.679
Epoch:92 || loss------> 1.167
Epoch:92 || loss------> 0.658
Epoch:93 || loss------> 1.158
Epoch:93 || loss------> 0.653
Epoch:94 || loss------> 1.176
Epoch:94 || loss------> 0.662
Epoch:95 || loss------> 1.157
Epoch:95 || loss------> 0.650
Epoch:96 || loss------> 1.174
Epoch:96 || loss------> 0.656
Epoch:97 || loss------> 1.167
Epoch:97 || loss------> 0.664
Epoch:98 || loss------> 1.170
Epoch:98 || loss------> 0.669
Epoch:99 || loss------> 1.147
Epoch:99 || loss------> 0.678
Epoch:100 || loss------> 1.155
Epoch:100 || loss------> 0.659
------Training complete------
No. of correct predictions: 1190 || No. of total samples: 2375
Accuracy of fine-tuned network on test videos: 50.105 %
------Evaluation complete. Saving best available checkpoint------
Epoch:1 || loss------> 1.283
Epoch:1 || loss------> 1.184
Epoch:2 || loss------> 2.044
Epoch:2 || loss------> 1.159
Epoch:3 || loss------> 2.041
Epoch:3 || loss------> 1.114
Epoch:4 || loss------> 1.889
Epoch:4 || loss------> 1.068
Epoch:5 || loss------> 1.852
Epoch:5 || loss------> 1.038
Epoch:6 || loss------> 1.740
Epoch:6 || loss------> 0.982
Epoch:7 || loss------> 1.698
Epoch:7 || loss------> 0.949
Epoch:8 || loss------> 1.671
Epoch:8 || loss------> 0.937
Epoch:9 || loss------> 1.635
Epoch:9 || loss------> 0.918
Epoch:10 || loss------> 1.666
Epoch:10 || loss------> 0.883
Epoch:11 || loss------> 1.598
Epoch:11 || loss------> 0.900
Epoch:12 || loss------> 1.548
Epoch:12 || loss------> 0.884
Epoch:13 || loss------> 1.538
Epoch:13 || loss------> 0.880
Epoch:14 || loss------> 1.458
Epoch:14 || loss------> 0.888
Epoch:15 || loss------> 1.475
Epoch:15 || loss------> 0.866
Epoch:16 || loss------> 1.508
Epoch:16 || loss------> 0.848
Epoch:17 || loss------> 1.489
Epoch:17 || loss------> 0.869
Epoch:18 || loss------> 1.495
Epoch:18 || loss------> 0.844
Epoch:19 || loss------> 1.440
Epoch:19 || loss------> 0.829
Epoch:20 || loss------> 1.453
Epoch:20 || loss------> 0.822
Epoch:21 || loss------> 1.463
Epoch:21 || loss------> 0.795
Epoch:22 || loss------> 1.406
Epoch:22 || loss------> 0.807
Epoch:23 || loss------> 1.362
Epoch:23 || loss------> 0.826
Epoch:24 || loss------> 1.417
Epoch:24 || loss------> 0.818
Epoch:25 || loss------> 1.414
Epoch:25 || loss------> 0.829
Epoch:26 || loss------> 1.403
Epoch:26 || loss------> 0.790
Epoch:27 || loss------> 1.393
Epoch:27 || loss------> 0.808
Epoch:28 || loss------> 1.406
Epoch:28 || loss------> 0.791
Epoch:29 || loss------> 1.346
Epoch:29 || loss------> 0.787
Epoch:30 || loss------> 1.376
Epoch:30 || loss------> 0.797
Epoch:31 || loss------> 1.371
Epoch:31 || loss------> 0.757
Epoch:32 || loss------> 1.378
Epoch:32 || loss------> 0.786
Epoch:33 || loss------> 1.385
Epoch:33 || loss------> 0.775
Epoch:34 || loss------> 1.360
Epoch:34 || loss------> 0.771
Epoch:35 || loss------> 1.339
Epoch:35 || loss------> 0.790
Epoch:36 || loss------> 1.340
Epoch:36 || loss------> 0.753
Epoch:37 || loss------> 1.354
Epoch:37 || loss------> 0.780
Epoch:38 || loss------> 1.322
Epoch:38 || loss------> 0.746
Epoch:39 || loss------> 1.311
Epoch:39 || loss------> 0.755
Epoch:40 || loss------> 1.296
Epoch:40 || loss------> 0.772
Epoch:41 || loss------> 1.311
Epoch:41 || loss------> 0.727
Epoch:42 || loss------> 1.314
Epoch:42 || loss------> 0.715
Epoch:43 || loss------> 1.294
Epoch:43 || loss------> 0.734
Epoch:44 || loss------> 1.295
Epoch:44 || loss------> 0.719
Epoch:45 || loss------> 1.278
Epoch:45 || loss------> 0.695
Epoch:46 || loss------> 1.276
Epoch:46 || loss------> 0.734
Epoch:47 || loss------> 1.270
Epoch:47 || loss------> 0.714
Epoch:48 || loss------> 1.266
Epoch:48 || loss------> 0.731
Epoch:49 || loss------> 1.237
Epoch:49 || loss------> 0.733
Epoch:50 || loss------> 1.261
Epoch:50 || loss------> 0.712
Epoch:51 || loss------> 1.279
Epoch:51 || loss------> 0.702
Epoch:52 || loss------> 1.256
Epoch:52 || loss------> 0.725
Epoch:53 || loss------> 1.250
Epoch:53 || loss------> 0.700
Epoch:54 || loss------> 1.254
Epoch:54 || loss------> 0.715
Epoch:55 || loss------> 1.278
Epoch:55 || loss------> 0.710
Epoch:56 || loss------> 1.192
Epoch:56 || loss------> 0.711
Epoch:57 || loss------> 1.221
Epoch:57 || loss------> 0.679
Epoch:58 || loss------> 1.224
Epoch:58 || loss------> 0.685
Epoch:59 || loss------> 1.216
Epoch:59 || loss------> 0.699
Epoch:60 || loss------> 1.198
Epoch:60 || loss------> 0.694
Epoch:61 || loss------> 1.246
Epoch:61 || loss------> 0.673
Epoch:62 || loss------> 1.198
Epoch:62 || loss------> 0.685
Epoch:63 || loss------> 1.193
Epoch:63 || loss------> 0.655
Epoch:64 || loss------> 1.191
Epoch:64 || loss------> 0.672
Epoch:65 || loss------> 1.194
Epoch:65 || loss------> 0.664
Epoch:66 || loss------> 1.188
Epoch:66 || loss------> 0.657
Epoch:67 || loss------> 1.210
Epoch:67 || loss------> 0.674
Epoch:68 || loss------> 1.157
Epoch:68 || loss------> 0.682
Epoch:69 || loss------> 1.170
Epoch:69 || loss------> 0.654
Epoch:70 || loss------> 1.180
Epoch:70 || loss------> 0.668
Epoch:71 || loss------> 1.172
Epoch:71 || loss------> 0.652
Epoch:72 || loss------> 1.170
Epoch:72 || loss------> 0.624
Epoch:73 || loss------> 1.155
Epoch:73 || loss------> 0.645
Epoch:74 || loss------> 1.161
Epoch:74 || loss------> 0.644
Epoch:75 || loss------> 1.180
Epoch:75 || loss------> 0.628
Epoch:76 || loss------> 1.158
Epoch:76 || loss------> 0.652
Epoch:77 || loss------> 1.131
Epoch:77 || loss------> 0.637
Epoch:78 || loss------> 1.158
Epoch:78 || loss------> 0.655
Epoch:79 || loss------> 1.134
Epoch:79 || loss------> 0.654
Epoch:80 || loss------> 1.126
Epoch:80 || loss------> 0.657
Epoch:81 || loss------> 1.137
Epoch:81 || loss------> 0.647
Epoch:82 || loss------> 1.160
Epoch:82 || loss------> 0.642
Epoch:83 || loss------> 1.178
Epoch:83 || loss------> 0.643
Epoch:84 || loss------> 1.138
Epoch:84 || loss------> 0.623
Epoch:85 || loss------> 1.115
Epoch:85 || loss------> 0.643
Epoch:86 || loss------> 1.145
Epoch:86 || loss------> 0.617
Epoch:87 || loss------> 1.134
Epoch:87 || loss------> 0.628
Epoch:88 || loss------> 1.135
Epoch:88 || loss------> 0.635
Epoch:89 || loss------> 1.122
Epoch:89 || loss------> 0.641
Epoch:90 || loss------> 1.128
Epoch:90 || loss------> 0.625
Epoch:91 || loss------> 1.128
Epoch:91 || loss------> 0.639
Epoch:92 || loss------> 1.123
Epoch:92 || loss------> 0.637
Epoch:93 || loss------> 1.125
Epoch:93 || loss------> 0.613
Epoch:94 || loss------> 1.141
Epoch:94 || loss------> 0.636
Epoch:95 || loss------> 1.126
Epoch:95 || loss------> 0.629
Epoch:96 || loss------> 1.116
Epoch:96 || loss------> 0.638
Epoch:97 || loss------> 1.131
Epoch:97 || loss------> 0.621
Epoch:98 || loss------> 1.157
Epoch:98 || loss------> 0.615
Epoch:99 || loss------> 1.095
Epoch:99 || loss------> 0.641
Epoch:100 || loss------> 1.148
Epoch:100 || loss------> 0.633
------Training complete------
No. of correct predictions: 1273 || No. of total samples: 2375
Accuracy of fine-tuned network on test videos: 53.600 %
------Evaluation complete. Saving best available checkpoint------
Epoch:1 || loss------> 1.291
Epoch:1 || loss------> 1.185
Epoch:2 || loss------> 2.074
Epoch:2 || loss------> 1.166
Epoch:3 || loss------> 1.930
Epoch:3 || loss------> 1.100
Epoch:4 || loss------> 1.925
Epoch:4 || loss------> 1.097
Epoch:5 || loss------> 1.907
Epoch:5 || loss------> 1.035
Epoch:6 || loss------> 1.827
Epoch:6 || loss------> 0.973
Epoch:7 || loss------> 1.754
Epoch:7 || loss------> 0.952
Epoch:8 || loss------> 1.639
Epoch:8 || loss------> 0.959
Epoch:9 || loss------> 1.644
Epoch:9 || loss------> 0.909
Epoch:10 || loss------> 1.585
Epoch:10 || loss------> 0.914
Epoch:11 || loss------> 1.588
Epoch:11 || loss------> 0.882
Epoch:12 || loss------> 1.541
Epoch:12 || loss------> 0.883
Epoch:13 || loss------> 1.531
Epoch:13 || loss------> 0.866
Epoch:14 || loss------> 1.501
Epoch:14 || loss------> 0.866
Epoch:15 || loss------> 1.529
Epoch:15 || loss------> 0.867
Epoch:16 || loss------> 1.535
Epoch:16 || loss------> 0.857
Epoch:17 || loss------> 1.535
Epoch:17 || loss------> 0.840
Epoch:18 || loss------> 1.489
Epoch:18 || loss------> 0.845
Epoch:19 || loss------> 1.491
Epoch:19 || loss------> 0.820
Epoch:20 || loss------> 1.433
Epoch:20 || loss------> 0.838
Epoch:21 || loss------> 1.435
Epoch:21 || loss------> 0.791
Epoch:22 || loss------> 1.424
Epoch:22 || loss------> 0.787
Epoch:23 || loss------> 1.386
Epoch:23 || loss------> 0.773
Epoch:24 || loss------> 1.399
Epoch:24 || loss------> 0.783
Epoch:25 || loss------> 1.399
Epoch:25 || loss------> 0.782
Epoch:26 || loss------> 1.425
Epoch:26 || loss------> 0.774
Epoch:27 || loss------> 1.403
Epoch:27 || loss------> 0.770
Epoch:28 || loss------> 1.410
Epoch:28 || loss------> 0.789
Epoch:29 || loss------> 1.358
Epoch:29 || loss------> 0.782
Epoch:30 || loss------> 1.410
Epoch:30 || loss------> 0.761
Epoch:31 || loss------> 1.434
Epoch:31 || loss------> 0.741
Epoch:32 || loss------> 1.395
Epoch:32 || loss------> 0.784
Epoch:33 || loss------> 1.316
Epoch:33 || loss------> 0.777
Epoch:34 || loss------> 1.373
Epoch:34 || loss------> 0.727
Epoch:35 || loss------> 1.329
Epoch:35 || loss------> 0.764
Epoch:36 || loss------> 1.323
Epoch:36 || loss------> 0.757
Epoch:37 || loss------> 1.301
Epoch:37 || loss------> 0.719
Epoch:38 || loss------> 1.302
Epoch:38 || loss------> 0.731
Epoch:39 || loss------> 1.301
Epoch:39 || loss------> 0.743
Epoch:40 || loss------> 1.294
Epoch:40 || loss------> 0.754
Epoch:41 || loss------> 1.276
Epoch:41 || loss------> 0.756
Epoch:42 || loss------> 1.229
Epoch:42 || loss------> 0.763
Epoch:43 || loss------> 1.310
Epoch:43 || loss------> 0.710
Epoch:44 || loss------> 1.287
Epoch:44 || loss------> 0.713
Epoch:45 || loss------> 1.286
Epoch:45 || loss------> 0.725
Epoch:46 || loss------> 1.271
Epoch:46 || loss------> 0.727
Epoch:47 || loss------> 1.281
Epoch:47 || loss------> 0.709
Epoch:48 || loss------> 1.242
Epoch:48 || loss------> 0.696
Epoch:49 || loss------> 1.282
Epoch:49 || loss------> 0.709
Epoch:50 || loss------> 1.209
Epoch:50 || loss------> 0.700
Epoch:51 || loss------> 1.234
Epoch:51 || loss------> 0.712
Epoch:52 || loss------> 1.238
Epoch:52 || loss------> 0.682
Epoch:53 || loss------> 1.242
Epoch:53 || loss------> 0.687
Epoch:54 || loss------> 1.209
Epoch:54 || loss------> 0.711
Epoch:55 || loss------> 1.229
Epoch:55 || loss------> 0.687
Epoch:56 || loss------> 1.203
Epoch:56 || loss------> 0.666
Epoch:57 || loss------> 1.199
Epoch:57 || loss------> 0.691
Epoch:58 || loss------> 1.214
Epoch:58 || loss------> 0.658
Epoch:59 || loss------> 1.179
Epoch:59 || loss------> 0.678
Epoch:60 || loss------> 1.212
Epoch:60 || loss------> 0.669
Epoch:61 || loss------> 1.209
Epoch:61 || loss------> 0.679
Epoch:62 || loss------> 1.180
Epoch:62 || loss------> 0.658
Epoch:63 || loss------> 1.182
Epoch:63 || loss------> 0.656
Epoch:64 || loss------> 1.160
Epoch:64 || loss------> 0.650
Epoch:65 || loss------> 1.190
Epoch:65 || loss------> 0.631
Epoch:66 || loss------> 1.153
Epoch:66 || loss------> 0.654
Epoch:67 || loss------> 1.168
Epoch:67 || loss------> 0.652
Epoch:68 || loss------> 1.155
Epoch:68 || loss------> 0.652
Epoch:69 || loss------> 1.143
Epoch:69 || loss------> 0.681
Epoch:70 || loss------> 1.115
Epoch:70 || loss------> 0.646
Epoch:71 || loss------> 1.138
Epoch:71 || loss------> 0.628
Epoch:72 || loss------> 1.135
Epoch:72 || loss------> 0.626
Epoch:73 || loss------> 1.142
Epoch:73 || loss------> 0.641
Epoch:74 || loss------> 1.148
Epoch:74 || loss------> 0.638
Epoch:75 || loss------> 1.156
Epoch:75 || loss------> 0.649
Epoch:76 || loss------> 1.120
Epoch:76 || loss------> 0.631
Epoch:77 || loss------> 1.122
Epoch:77 || loss------> 0.625
Epoch:78 || loss------> 1.127
Epoch:78 || loss------> 0.651
Epoch:79 || loss------> 1.131
Epoch:79 || loss------> 0.632
Epoch:80 || loss------> 1.142
Epoch:80 || loss------> 0.621
Epoch:81 || loss------> 1.111
Epoch:81 || loss------> 0.641
Epoch:82 || loss------> 1.102
Epoch:82 || loss------> 0.627
Epoch:83 || loss------> 1.136
Epoch:83 || loss------> 0.622
Epoch:84 || loss------> 1.113
Epoch:84 || loss------> 0.627
Epoch:85 || loss------> 1.134
Epoch:85 || loss------> 0.634
Epoch:86 || loss------> 1.088
Epoch:86 || loss------> 0.634
Epoch:87 || loss------> 1.151
Epoch:87 || loss------> 0.606
Epoch:88 || loss------> 1.100
Epoch:88 || loss------> 0.635
Epoch:89 || loss------> 1.104
Epoch:89 || loss------> 0.634
Epoch:90 || loss------> 1.094
Epoch:90 || loss------> 0.653
Epoch:91 || loss------> 1.107
Epoch:91 || loss------> 0.629
Epoch:92 || loss------> 1.106
Epoch:92 || loss------> 0.634
Epoch:93 || loss------> 1.140
Epoch:93 || loss------> 0.613
Epoch:94 || loss------> 1.128
Epoch:94 || loss------> 0.634
Epoch:95 || loss------> 1.109
Epoch:95 || loss------> 0.616
Epoch:96 || loss------> 1.101
Epoch:96 || loss------> 0.634
Epoch:97 || loss------> 1.090
Epoch:97 || loss------> 0.611
Epoch:98 || loss------> 1.132
Epoch:98 || loss------> 0.617
Epoch:99 || loss------> 1.103
Epoch:99 || loss------> 0.643
Epoch:100 || loss------> 1.086
Epoch:100 || loss------> 0.644
------Training complete------
No. of correct predictions: 1254 || No. of total samples: 2375
Accuracy of fine-tuned network on test videos: 52.800 %
------Evaluation complete. Saving best available checkpoint------
Epoch:1 || loss------> 1.304
Epoch:1 || loss------> 1.178
Epoch:2 || loss------> 2.075
Epoch:2 || loss------> 1.191
Epoch:3 || loss------> 2.024
Epoch:3 || loss------> 1.124
Epoch:4 || loss------> 1.939
Epoch:4 || loss------> 1.055
Epoch:5 || loss------> 1.932
Epoch:5 || loss------> 1.093
Epoch:6 || loss------> 1.852
Epoch:6 || loss------> 1.070
Epoch:7 || loss------> 1.825
Epoch:7 || loss------> 1.020
Epoch:8 || loss------> 1.811
Epoch:8 || loss------> 1.015
Epoch:9 || loss------> 1.737
Epoch:9 || loss------> 0.986
Epoch:10 || loss------> 1.723
Epoch:10 || loss------> 0.942
Epoch:11 || loss------> 1.669
Epoch:11 || loss------> 0.927
Epoch:12 || loss------> 1.635
Epoch:12 || loss------> 0.934
Epoch:13 || loss------> 1.616
Epoch:13 || loss------> 0.871
Epoch:14 || loss------> 1.577
Epoch:14 || loss------> 0.899
Epoch:15 || loss------> 1.572
Epoch:15 || loss------> 0.904
Epoch:16 || loss------> 1.556
Epoch:16 || loss------> 0.885
Epoch:17 || loss------> 1.570
Epoch:17 || loss------> 0.896
Epoch:18 || loss------> 1.536
Epoch:18 || loss------> 0.875
Epoch:19 || loss------> 1.538
Epoch:19 || loss------> 0.881
Epoch:20 || loss------> 1.503
Epoch:20 || loss------> 0.858
Epoch:21 || loss------> 1.497
Epoch:21 || loss------> 0.888
Epoch:22 || loss------> 1.488
Epoch:22 || loss------> 0.857
Epoch:23 || loss------> 1.525
Epoch:23 || loss------> 0.856
Epoch:24 || loss------> 1.527
Epoch:24 || loss------> 0.857
Epoch:25 || loss------> 1.466
Epoch:25 || loss------> 0.836
Epoch:26 || loss------> 1.470
Epoch:26 || loss------> 0.824
Epoch:27 || loss------> 1.446
Epoch:27 || loss------> 0.842
Epoch:28 || loss------> 1.469
Epoch:28 || loss------> 0.816
Epoch:29 || loss------> 1.424
Epoch:29 || loss------> 0.821
Epoch:30 || loss------> 1.430
Epoch:30 || loss------> 0.805
Epoch:31 || loss------> 1.406
Epoch:31 || loss------> 0.807
Epoch:32 || loss------> 1.392
Epoch:32 || loss------> 0.805
Epoch:33 || loss------> 1.386
Epoch:33 || loss------> 0.809
Epoch:34 || loss------> 1.362
Epoch:34 || loss------> 0.808
Epoch:35 || loss------> 1.413
Epoch:35 || loss------> 0.811
Epoch:36 || loss------> 1.369
Epoch:36 || loss------> 0.801
Epoch:37 || loss------> 1.406
Epoch:37 || loss------> 0.798
Epoch:38 || loss------> 1.407
Epoch:38 || loss------> 0.791
Epoch:39 || loss------> 1.380
Epoch:39 || loss------> 0.779
Epoch:40 || loss------> 1.367
Epoch:40 || loss------> 0.787
Epoch:41 || loss------> 1.369
Epoch:41 || loss------> 0.806
Epoch:42 || loss------> 1.389
Epoch:42 || loss------> 0.759
Epoch:43 || loss------> 1.347
Epoch:43 || loss------> 0.785
Epoch:44 || loss------> 1.367
Epoch:44 || loss------> 0.749
Epoch:45 || loss------> 1.398
Epoch:45 || loss------> 0.770
Epoch:46 || loss------> 1.326
Epoch:46 || loss------> 0.762
Epoch:47 || loss------> 1.375
Epoch:47 || loss------> 0.761
Epoch:48 || loss------> 1.314
Epoch:48 || loss------> 0.783
Epoch:49 || loss------> 1.355
Epoch:49 || loss------> 0.761
Epoch:50 || loss------> 1.308
Epoch:50 || loss------> 0.757
Epoch:51 || loss------> 1.341
Epoch:51 || loss------> 0.750
Epoch:52 || loss------> 1.326
Epoch:52 || loss------> 0.740
Epoch:53 || loss------> 1.334
Epoch:53 || loss------> 0.765
Epoch:54 || loss------> 1.309
Epoch:54 || loss------> 0.745
Epoch:55 || loss------> 1.320
Epoch:55 || loss------> 0.784
Epoch:56 || loss------> 1.289
Epoch:56 || loss------> 0.727
Epoch:57 || loss------> 1.321
Epoch:57 || loss------> 0.733
Epoch:58 || loss------> 1.274
Epoch:58 || loss------> 0.725
Epoch:59 || loss------> 1.341
Epoch:59 || loss------> 0.703
Epoch:60 || loss------> 1.280
Epoch:60 || loss------> 0.735
Epoch:61 || loss------> 1.286
Epoch:61 || loss------> 0.720
Epoch:62 || loss------> 1.303
Epoch:62 || loss------> 0.737
Epoch:63 || loss------> 1.274
Epoch:63 || loss------> 0.724
Epoch:64 || loss------> 1.246
Epoch:64 || loss------> 0.744
Epoch:65 || loss------> 1.264
Epoch:65 || loss------> 0.717
Epoch:66 || loss------> 1.264
Epoch:66 || loss------> 0.732
Epoch:67 || loss------> 1.269
Epoch:67 || loss------> 0.711
Epoch:68 || loss------> 1.290
Epoch:68 || loss------> 0.709
Epoch:69 || loss------> 1.289
Epoch:69 || loss------> 0.698
Epoch:70 || loss------> 1.243
Epoch:70 || loss------> 0.712
Epoch:71 || loss------> 1.213
Epoch:71 || loss------> 0.722
Epoch:72 || loss------> 1.276
Epoch:72 || loss------> 0.724
Epoch:73 || loss------> 1.214
Epoch:73 || loss------> 0.731
Epoch:74 || loss------> 1.236
Epoch:74 || loss------> 0.692
Epoch:75 || loss------> 1.235
Epoch:75 || loss------> 0.703
Epoch:76 || loss------> 1.238
Epoch:76 || loss------> 0.697
Epoch:77 || loss------> 1.242
Epoch:77 || loss------> 0.703
Epoch:78 || loss------> 1.235
Epoch:78 || loss------> 0.711
Epoch:79 || loss------> 1.248
Epoch:79 || loss------> 0.706
Epoch:80 || loss------> 1.205
Epoch:80 || loss------> 0.703
Epoch:81 || loss------> 1.252
Epoch:81 || loss------> 0.693
Epoch:82 || loss------> 1.211
Epoch:82 || loss------> 0.691
Epoch:83 || loss------> 1.222
Epoch:83 || loss------> 0.703
Epoch:84 || loss------> 1.218
Epoch:84 || loss------> 0.716
Epoch:85 || loss------> 1.187
Epoch:85 || loss------> 0.699
Epoch:86 || loss------> 1.232
Epoch:86 || loss------> 0.686
Epoch:87 || loss------> 1.226
Epoch:87 || loss------> 0.690
Epoch:88 || loss------> 1.206
Epoch:88 || loss------> 0.687
Epoch:89 || loss------> 1.212
Epoch:89 || loss------> 0.706
Epoch:90 || loss------> 1.222
Epoch:90 || loss------> 0.679
Epoch:91 || loss------> 1.192
Epoch:91 || loss------> 0.687
Epoch:92 || loss------> 1.239
Epoch:92 || loss------> 0.684
Epoch:93 || loss------> 1.231
Epoch:93 || loss------> 0.699
Epoch:94 || loss------> 1.226
Epoch:94 || loss------> 0.692
Epoch:95 || loss------> 1.218
Epoch:95 || loss------> 0.663
Epoch:96 || loss------> 1.220
Epoch:96 || loss------> 0.685
Epoch:97 || loss------> 1.202
Epoch:97 || loss------> 0.681
Epoch:98 || loss------> 1.223
Epoch:98 || loss------> 0.679
Epoch:99 || loss------> 1.232
Epoch:99 || loss------> 0.694
Epoch:100 || loss------> 1.205
Epoch:100 || loss------> 0.681
------Training complete------
No. of correct predictions: 1301 || No. of total samples: 2375
Accuracy of fine-tuned network on test videos: 54.779 %
------Evaluation complete. Saving best available checkpoint------
Epoch:1 || loss------> 1.284
Epoch:1 || loss------> 1.187
Epoch:2 || loss------> 2.057
Epoch:2 || loss------> 1.271
Epoch:3 || loss------> 2.125
Epoch:3 || loss------> 1.163
Epoch:4 || loss------> 1.970
Epoch:4 || loss------> 1.090
Epoch:5 || loss------> 1.853
Epoch:5 || loss------> 1.054
Epoch:6 || loss------> 1.873
Epoch:6 || loss------> 1.061
Epoch:7 || loss------> 1.799
Epoch:7 || loss------> 0.994
Epoch:8 || loss------> 1.742
Epoch:8 || loss------> 0.979
Epoch:9 || loss------> 1.734
Epoch:9 || loss------> 0.950
Epoch:10 || loss------> 1.649
Epoch:10 || loss------> 0.904
Epoch:11 || loss------> 1.598
Epoch:11 || loss------> 0.892
Epoch:12 || loss------> 1.552
Epoch:12 || loss------> 0.868
Epoch:13 || loss------> 1.539
Epoch:13 || loss------> 0.879
Epoch:14 || loss------> 1.555
Epoch:14 || loss------> 0.858
Epoch:15 || loss------> 1.567
Epoch:15 || loss------> 0.863
Epoch:16 || loss------> 1.548
Epoch:16 || loss------> 0.857
Epoch:17 || loss------> 1.549
Epoch:17 || loss------> 0.865
Epoch:18 || loss------> 1.526
Epoch:18 || loss------> 0.834
Epoch:19 || loss------> 1.555
Epoch:19 || loss------> 0.842
Epoch:20 || loss------> 1.511
Epoch:20 || loss------> 0.841
Epoch:21 || loss------> 1.498
Epoch:21 || loss------> 0.846
Epoch:22 || loss------> 1.451
Epoch:22 || loss------> 0.835
Epoch:23 || loss------> 1.451
Epoch:23 || loss------> 0.839
Epoch:24 || loss------> 1.480
Epoch:24 || loss------> 0.815
Epoch:25 || loss------> 1.444
Epoch:25 || loss------> 0.819
Epoch:26 || loss------> 1.438
Epoch:26 || loss------> 0.821
Epoch:27 || loss------> 1.424
Epoch:27 || loss------> 0.803
Epoch:28 || loss------> 1.425
Epoch:28 || loss------> 0.789
Epoch:29 || loss------> 1.418
Epoch:29 || loss------> 0.781
Epoch:30 || loss------> 1.389
Epoch:30 || loss------> 0.794
Epoch:31 || loss------> 1.375
Epoch:31 || loss------> 0.803
Epoch:32 || loss------> 1.396
Epoch:32 || loss------> 0.766
Epoch:33 || loss------> 1.374
Epoch:33 || loss------> 0.775
Epoch:34 || loss------> 1.348
Epoch:34 || loss------> 0.800
Epoch:35 || loss------> 1.354
Epoch:35 || loss------> 0.753
Epoch:36 || loss------> 1.387
Epoch:36 || loss------> 0.762
Epoch:37 || loss------> 1.361
Epoch:37 || loss------> 0.787
Epoch:38 || loss------> 1.348
Epoch:38 || loss------> 0.783
Epoch:39 || loss------> 1.351
Epoch:39 || loss------> 0.750
Epoch:40 || loss------> 1.377
Epoch:40 || loss------> 0.773
Epoch:41 || loss------> 1.306
Epoch:41 || loss------> 0.757
Epoch:42 || loss------> 1.392
Epoch:42 || loss------> 0.763
Epoch:43 || loss------> 1.334
Epoch:43 || loss------> 0.770
Epoch:44 || loss------> 1.305
Epoch:44 || loss------> 0.762
Epoch:45 || loss------> 1.353
Epoch:45 || loss------> 0.744
Epoch:46 || loss------> 1.320
Epoch:46 || loss------> 0.747
Epoch:47 || loss------> 1.346
Epoch:47 || loss------> 0.733
Epoch:48 || loss------> 1.274
Epoch:48 || loss------> 0.755
Epoch:49 || loss------> 1.297
Epoch:49 || loss------> 0.713
Epoch:50 || loss------> 1.310
Epoch:50 || loss------> 0.739
Epoch:51 || loss------> 1.273
Epoch:51 || loss------> 0.730
Epoch:52 || loss------> 1.294
Epoch:52 || loss------> 0.728
Epoch:53 || loss------> 1.297
Epoch:53 || loss------> 0.710
Epoch:54 || loss------> 1.296
Epoch:54 || loss------> 0.708
Epoch:55 || loss------> 1.294
Epoch:55 || loss------> 0.709
Epoch:56 || loss------> 1.285
Epoch:56 || loss------> 0.707
Epoch:57 || loss------> 1.255
Epoch:57 || loss------> 0.714
Epoch:58 || loss------> 1.270
Epoch:58 || loss------> 0.718
Epoch:59 || loss------> 1.250
Epoch:59 || loss------> 0.710
Epoch:60 || loss------> 1.243
Epoch:60 || loss------> 0.707
Epoch:61 || loss------> 1.245
Epoch:61 || loss------> 0.716
Epoch:62 || loss------> 1.241
Epoch:62 || loss------> 0.700
Epoch:63 || loss------> 1.234
Epoch:63 || loss------> 0.703
Epoch:64 || loss------> 1.260
Epoch:64 || loss------> 0.696
Epoch:65 || loss------> 1.248
Epoch:65 || loss------> 0.688
Epoch:66 || loss------> 1.252
Epoch:66 || loss------> 0.698
Epoch:67 || loss------> 1.236
Epoch:67 || loss------> 0.687
Epoch:68 || loss------> 1.225
Epoch:68 || loss------> 0.692
Epoch:69 || loss------> 1.225
Epoch:69 || loss------> 0.689
Epoch:70 || loss------> 1.205
Epoch:70 || loss------> 0.715
Epoch:71 || loss------> 1.229
Epoch:71 || loss------> 0.692
Epoch:72 || loss------> 1.211
Epoch:72 || loss------> 0.688
Epoch:73 || loss------> 1.212
Epoch:73 || loss------> 0.698
Epoch:74 || loss------> 1.203
Epoch:74 || loss------> 0.695
Epoch:75 || loss------> 1.215
Epoch:75 || loss------> 0.688
Epoch:76 || loss------> 1.203
Epoch:76 || loss------> 0.683
Epoch:77 || loss------> 1.193
Epoch:77 || loss------> 0.688
Epoch:78 || loss------> 1.178
Epoch:78 || loss------> 0.711
Epoch:79 || loss------> 1.165
Epoch:79 || loss------> 0.697
Epoch:80 || loss------> 1.187
Epoch:80 || loss------> 0.676
Epoch:81 || loss------> 1.216
Epoch:81 || loss------> 0.663
Epoch:82 || loss------> 1.213
Epoch:82 || loss------> 0.675
Epoch:83 || loss------> 1.199
Epoch:83 || loss------> 0.693
Epoch:84 || loss------> 1.191
Epoch:84 || loss------> 0.663
Epoch:85 || loss------> 1.175
Epoch:85 || loss------> 0.669
Epoch:86 || loss------> 1.212
Epoch:86 || loss------> 0.670
Epoch:87 || loss------> 1.220
Epoch:87 || loss------> 0.656
Epoch:88 || loss------> 1.189
Epoch:88 || loss------> 0.662
Epoch:89 || loss------> 1.196
Epoch:89 || loss------> 0.682
Epoch:90 || loss------> 1.191
Epoch:90 || loss------> 0.662
Epoch:91 || loss------> 1.196
Epoch:91 || loss------> 0.681
Epoch:92 || loss------> 1.159
Epoch:92 || loss------> 0.669
Epoch:93 || loss------> 1.208
Epoch:93 || loss------> 0.672
Epoch:94 || loss------> 1.164
Epoch:94 || loss------> 0.689
Epoch:95 || loss------> 1.182
Epoch:95 || loss------> 0.677
Epoch:96 || loss------> 1.176
Epoch:96 || loss------> 0.669
Epoch:97 || loss------> 1.177
Epoch:97 || loss------> 0.680
Epoch:98 || loss------> 1.180
Epoch:98 || loss------> 0.671
Epoch:99 || loss------> 1.190
Epoch:99 || loss------> 0.686
Epoch:100 || loss------> 1.144
Epoch:100 || loss------> 0.695
------Training complete------
No. of correct predictions: 1251 || No. of total samples: 2375
Accuracy of fine-tuned network on test videos: 52.674 %
------Evaluation complete. Saving best available checkpoint------
Mean accuracy obtained over 5 runs: 52.792
Best accuracy obtained over 5 runs: 54.779
{50.10526315789474, 52.8, 53.6, 54.77894736842105, 52.67368421052632}
